{
  "accessors": [
    {
      "bufferView": 2,
      "componentType": 5126,
      "count": 1692,
      "max": [
        963.5335693359375,
        972.0582885742188,
        -426.13079833984375
      ],
      "min": [
        -1665.2777099609375,
        -966.3106079101563,
        -435.44580078125
      ],
      "type": "VEC3"
    },
    {
      "bufferView": 2,
      "byteOffset": 20304,
      "componentType": 5126,
      "count": 1692,
      "max": [
        1.0,
        1.0,
        1.0
      ],
      "min": [
        -1.0,
        -1.0,
        -0.0
      ],
      "type": "VEC3"
    },
    {
      "bufferView": 3,
      "componentType": 5126,
      "count": 1692,
      "max": [
        0.9520478248596191,
        0.6897596120834351,
        0.999106764793396,
        -1.0
      ],
      "min": [
        -0.041497327387332916,
        -0.35177531838417053,
        -0.9990976452827454,
        -1.0
      ],
      "type": "VEC4"
    },
    {
      "bufferView": 1,
      "componentType": 5126,
      "count": 1692,
      "max": [
        0.9610428810119629,
        0.9959704279899597
      ],
      "min": [
        0.0023555755615234375,
        0.5226528644561768
      ],
      "type": "VEC2"
    },
    {
      "bufferView": 1,
      "byteOffset": 13536,
      "componentType": 5126,
      "count": 1692,
      "max": [
        0.9610428810119629,
        0.9959704279899597
      ],
      "min": [
        0.0023555755615234375,
        0.5226528644561768
      ],
      "type": "VEC2"
    },
    {
      "bufferView": 1,
      "byteOffset": 27072,
      "componentType": 5126,
      "count": 1692,
      "max": [
        0.9610428810119629,
        0.9959704279899597
      ],
      "min": [
        0.0023555755615234375,
        0.5226528644561768
      ],
      "type": "VEC2"
    },
    {
      "bufferView": 1,
      "byteOffset": 40608,
      "componentType": 5126,
      "count": 1692,
      "max": [
        0.9610428810119629,
        0.9959704279899597
      ],
      "min": [
        0.0023555755615234375,
        0.5226528644561768
      ],
      "type": "VEC2"
    },
    {
      "bufferView": 1,
      "byteOffset": 54144,
      "componentType": 5126,
      "count": 1692,
      "max": [
        0.9610428810119629,
        0.9959704279899597
      ],
      "min": [
        0.0023555755615234375,
        0.5226528644561768
      ],
      "type": "VEC2"
    },
    {
      "bufferView": 0,
      "componentType": 5125,
      "count": 5040,
      "type": "SCALAR"
    },
    {
      "bufferView": 2,
      "byteOffset": 40608,
      "componentType": 5126,
      "count": 1576,
      "max": [
        1013.659912109375,
        1014.4767456054688,
        -0.0
      ],
      "min": [
        -1750.5885009765625,
        -1014.4767456054688,
        -445.614990234375
      ],
      "type": "VEC3"
    },
    {
      "bufferView": 2,
      "byteOffset": 59520,
      "componentType": 5126,
      "count": 1576,
      "max": [
        1.0,
        1.0,
        1.0
      ],
      "min": [
        -1.0,
        -1.0,
        -1.0
      ],
      "type": "VEC3"
    },
    {
      "bufferView": 3,
      "byteOffset": 27072,
      "componentType": 5126,
      "count": 1576,
      "max": [
        1.0,
        1.0,
        1.0,
        1.0
      ],
      "min": [
        -1.0,
        -1.0,
        -1.0,
        -1.0
      ],
      "type": "VEC4"
    },
    {
      "bufferView": 1,
      "byteOffset": 67680,
      "componentType": 5126,
      "count": 1576,
      "max": [
        0.9976545572280884,
        0.993447482585907
      ],
      "min": [
        0.005609840154647827,
        0.0067138671875
      ],
      "type": "VEC2"
    },
    {
      "bufferView": 1,
      "byteOffset": 80288,
      "componentType": 5126,
      "count": 1576,
      "max": [
        0.9976545572280884,
        0.993447482585907
      ],
      "min": [
        0.005609840154647827,
        0.0067138671875
      ],
      "type": "VEC2"
    },
    {
      "bufferView": 1,
      "byteOffset": 92896,
      "componentType": 5126,
      "count": 1576,
      "max": [
        0.9976545572280884,
        0.993447482585907
      ],
      "min": [
        0.005609840154647827,
        0.0067138671875
      ],
      "type": "VEC2"
    },
    {
      "bufferView": 1,
      "byteOffset": 105504,
      "componentType": 5126,
      "count": 1576,
      "max": [
        0.9976545572280884,
        0.993447482585907
      ],
      "min": [
        0.005609840154647827,
        0.0067138671875
      ],
      "type": "VEC2"
    },
    {
      "bufferView": 1,
      "byteOffset": 118112,
      "componentType": 5126,
      "count": 1576,
      "max": [
        0.9976545572280884,
        0.993447482585907
      ],
      "min": [
        0.005609840154647827,
        0.0067138671875
      ],
      "type": "VEC2"
    },
    {
      "bufferView": 0,
      "byteOffset": 20160,
      "componentType": 5125,
      "count": 2748,
      "type": "SCALAR"
    }
  ],
  "asset": {
    "extras": {
      "author": "ALLrounder18 (https://sketchfab.com/abdulrehman18sep)",
      "license": "CC-BY-4.0 (http://creativecommons.org/licenses/by/4.0/)",
      "source": "https://sketchfab.com/3d-models/art-gallery-4f619683576d484dae9d4bf2a04091ee",
      "title": "Art Gallery"
    },
    "generator": "Sketchfab-16.0.0",
    "version": "2.0"
  },
  "bufferViews": [
    {
      "buffer": 0,
      "byteLength": 31152,
      "name": "floatBufferViews",
      "target": 34963
    },
    {
      "buffer": 0,
      "byteLength": 130720,
      "byteOffset": 31152,
      "byteStride": 8,
      "name": "floatBufferViews",
      "target": 34962
    },
    {
      "buffer": 0,
      "byteLength": 78432,
      "byteOffset": 161872,
      "byteStride": 12,
      "name": "floatBufferViews",
      "target": 34962
    },
    {
      "buffer": 0,
      "byteLength": 52288,
      "byteOffset": 240304,
      "byteStride": 16,
      "name": "floatBufferViews",
      "target": 34962
    }
  ],
  "buffers": [
    {
      "byteLength": 292592,
      "uri": "scene.bin"
    }
  ],
  "extensionsUsed": [
    "KHR_materials_emissive_strength",
    "KHR_materials_clearcoat",
    "KHR_materials_specular"
  ],
  "images": [
    {
      "uri": "textures/Art_Room1_baseColor.png"
    },
    {
      "uri": "textures/Art_Room1_metallicRoughness.png"
    },
    {
      "uri": "textures/Art_Room1_emissive.png"
    },
    {
      "uri": "textures/Art_Room1_normal.png"
    },
    {
      "uri": "textures/Art_Room1_specularf0.png"
    }
  ],
  "materials": [
    {
      "doubleSided": true,
      "emissiveFactor": [
        1.0,
        1.0,
        1.0
      ],
      "emissiveTexture": {
        "index": 2
      },
      "extensions": {
        "KHR_materials_clearcoat": {
          "clearcoatFactor": 0.12204110455068795,
          "clearcoatRoughnessFactor": 0.07342720826843567
        },
        "KHR_materials_emissive_strength": {
          "emissiveStrength": 4.380314303853278
        },
        "KHR_materials_specular": {
          "specularColorFactor": [
            1.0,
            1.0,
            1.0
          ],
          "specularFactor": 1.0,
          "specularTexture": {
            "index": 4
          }
        }
      },
      "name": "Art_Room1",
      "normalTexture": {
        "index": 3
      },
      "pbrMetallicRoughness": {
        "baseColorTexture": {
          "index": 0
        },
        "metallicRoughnessTexture": {
          "index": 1
        }
      }
    }
  ],
  "meshes": [
    {
      "name": "Object_0",
      "primitives": [
        {
          "attributes": {
            "NORMAL": 1,
            "POSITION": 0,
            "TANGENT": 2,
            "TEXCOORD_0": 3,
            "TEXCOORD_1": 4,
            "TEXCOORD_2": 5,
            "TEXCOORD_3": 6,
            "TEXCOORD_4": 7
          },
          "indices": 8,
          "material": 0,
          "mode": 4
        }
      ]
    },
    {
      "name": "Object_1",
      "primitives": [
        {
          "attributes": {
            "NORMAL": 10,
            "POSITION": 9,
            "TANGENT": 11,
            "TEXCOORD_0": 12,
            "TEXCOORD_1": 13,
            "TEXCOORD_2": 14,
            "TEXCOORD_3": 15,
            "TEXCOORD_4": 16
          },
          "indices": 17,
          "material": 0,
          "mode": 4
        }
      ]
    }
  ],
  "nodes": [
    {
      "children": [
        1
      ],
      "matrix": [
        1.0,
        0.0,
        0.0,
        0.0,
        0.0,
        2.220446049250313e-16,
        -1.0,
        0.0,
        0.0,
        1.0,
        2.220446049250313e-16,
        0.0,
        0.0,
        0.0,
        0.0,
        1.0
      ],
      "name": "Sketchfab_model"
    },
    {
      "children": [
        2
      ],
      "name": "root"
    },
    {
      "children": [
        3,
        5
      ],
      "matrix": [
        1.0,
        0.0,
        0.0,
        0.0,
        0.0,
        2.220446049250313e-16,
        1.0,
        0.0,
        0.0,
        -1.0,
        2.220446049250313e-16,
        0.0,
        0.0,
        0.0,
        0.0,
        1.0
      ],
      "name": "GLTF_SceneRootNode"
    },
    {
      "children": [
        4
      ],
      "matrix": [
        0.009999999776482582,
        0.0,
        0.0,
        0.0,
        0.0,
        0.0,
        0.009999999776482582,
        0.0,
        0.0,
        -0.009999999776482582,
        0.0,
        0.0,
        0.0,
        0.0,
        0.0,
        1.0
      ],
      "name": "Lights_0"
    },
    {
      "mesh": 0,
      "name": "Object_4"
    },
    {
      "children": [
        6
      ],
      "matrix": [
        0.009999999776482582,
        0.0,
        0.0,
        0.0,
        0.0,
        0.0,
        0.009999999776482582,
        0.0,
        0.0,
        -0.009999999776482582,
        0.0,
        0.0,
        0.0,
        0.0,
        0.0,
        1.0
      ],
      "name": "Art_Room_1"
    },
    {
      "mesh": 1,
      "name": "Object_6"
    }
  ],
  "samplers": [
    {
      "magFilter": 9729,
      "minFilter": 9987,
      "wrapS": 10497,
      "wrapT": 10497
    }
  ],
  "scene": 0,
  "scenes": [
    {
      "name": "Sketchfab_Scene",
      "nodes": [
        0
      ]
    }
  ],
  "textures": [
    {
      "sampler": 0,
      "source": 0
    },
    {
      "sampler": 0,
      "source": 1
    },
    {
      "sampler": 0,
      "source": 2
    },
    {
      "sampler": 0,
      "source": 3
    },
    {
      "sampler": 0,
      "source": 4
    }
  ]
}
