{
  "accessors": [
    {
      "bufferView": 2,
      "componentType": 5126,
      "count": 65532,
      "max": [
        38.54155731201172,
        20.064998626708984,
        32.604557037353516
      ],
      "min": [
        -19.682836532592773,
        -30.11490249633789,
        -0.5716238021850586
      ],
      "type": "VEC3"
    },
    {
      "bufferView": 2,
      "byteOffset": 786384,
      "componentType": 5126,
      "count": 65532,
      "max": [
        0.9999998807907104,
        0.9999964833259583,
        1.0
      ],
      "min": [
        -0.9999974370002747,
        -1.0,
        -1.0
      ],
      "type": "VEC3"
    },
    {
      "bufferView": 1,
      "componentType": 5126,
      "count": 65532,
      "max": [
        0.9997689723968506,
        0.8277590274810791
      ],
      "min": [
        0.00012199999764561653,
        0.00026199998683296144
      ],
      "type": "VEC2"
    },
    {
      "bufferView": 0,
      "componentType": 5125,
      "count": 245943,
      "type": "SCALAR"
    },
    {
      "bufferView": 2,
      "byteOffset": 1572768,
      "componentType": 5126,
      "count": 65532,
      "max": [
        25.818925857543945,
        14.491791725158691,
        29.539867401123047
      ],
      "min": [
        -13.870895385742188,
        -20.356779098510742,
        -0.5708913803100586
      ],
      "type": "VEC3"
    },
    {
      "bufferView": 2,
      "byteOffset": 2359152,
      "componentType": 5126,
      "count": 65532,
      "max": [
        0.9999998807907104,
        0.9999942779541016,
        1.0
      ],
      "min": [
        -0.999967098236084,
        -0.9999996423721313,
        -0.9999964833259583
      ],
      "type": "VEC3"
    },
    {
      "bufferView": 1,
      "byteOffset": 524256,
      "componentType": 5126,
      "count": 65532,
      "max": [
        0.9996140003204346,
        0.8277590274810791
      ],
      "min": [
        0.0003659999929368496,
        0.0004079999926034361
      ],
      "type": "VEC2"
    },
    {
      "bufferView": 0,
      "byteOffset": 983772,
      "componentType": 5125,
      "count": 268581,
      "type": "SCALAR"
    },
    {
      "bufferView": 2,
      "byteOffset": 3145536,
      "componentType": 5126,
      "count": 65532,
      "max": [
        26.470706939697266,
        14.481240272521973,
        31.268381118774414
      ],
      "min": [
        -13.88366985321045,
        -17.025917053222656,
        -0.16510295867919922
      ],
      "type": "VEC3"
    },
    {
      "bufferView": 2,
      "byteOffset": 3931920,
      "componentType": 5126,
      "count": 65532,
      "max": [
        0.9999961853027344,
        1.0,
        1.0
      ],
      "min": [
        -0.9999999403953552,
        -0.9999980330467224,
        -0.9999732971191406
      ],
      "type": "VEC3"
    },
    {
      "bufferView": 1,
      "byteOffset": 1048512,
      "componentType": 5126,
      "count": 65532,
      "max": [
        0.999754011631012,
        0.8277590274810791
      ],
      "min": [
        0.00012199999764561653,
        0.010727000422775745
      ],
      "type": "VEC2"
    },
    {
      "bufferView": 0,
      "byteOffset": 2058096,
      "componentType": 5125,
      "count": 270249,
      "type": "SCALAR"
    },
    {
      "bufferView": 2,
      "byteOffset": 4718304,
      "componentType": 5126,
      "count": 65532,
      "max": [
        29.46874237060547,
        14.460355758666992,
        26.574573516845703
      ],
      "min": [
        -13.866002082824707,
        -28.979385375976563,
        -0.5723943710327148
      ],
      "type": "VEC3"
    },
    {
      "bufferView": 2,
      "byteOffset": 5504688,
      "componentType": 5126,
      "count": 65532,
      "max": [
        0.9999978542327881,
        0.9999973773956299,
        1.0
      ],
      "min": [
        -0.9999974370002747,
        -0.999999463558197,
        -1.0
      ],
      "type": "VEC3"
    },
    {
      "bufferView": 1,
      "byteOffset": 1572768,
      "componentType": 5126,
      "count": 65532,
      "max": [
        0.9998049736022949,
        0.8277590274810791
      ],
      "min": [
        0.00012199999764561653,
        0.00025599999935366213
      ],
      "type": "VEC2"
    },
    {
      "bufferView": 0,
      "byteOffset": 3139092,
      "componentType": 5125,
      "count": 253254,
      "type": "SCALAR"
    },
    {
      "bufferView": 2,
      "byteOffset": 6291072,
      "componentType": 5126,
      "count": 65532,
      "max": [
        19.17630386352539,
        14.106451034545898,
        31.66830825805664
      ],
      "min": [
        -13.605704307556152,
        -16.993791580200195,
        0.11798095703125
      ],
      "type": "VEC3"
    },
    {
      "bufferView": 2,
      "byteOffset": 7077456,
      "componentType": 5126,
      "count": 65532,
      "max": [
        0.9999996423721313,
        0.9999751448631287,
        1.0
      ],
      "min": [
        -0.9999826550483704,
        -0.999998927116394,
        -0.9999999403953552
      ],
      "type": "VEC3"
    },
    {
      "bufferView": 1,
      "byteOffset": 2097024,
      "componentType": 5126,
      "count": 65532,
      "max": [
        0.999688982963562,
        0.8277590274810791
      ],
      "min": [
        0.00012199999764561653,
        0.00026000000070780516
      ],
      "type": "VEC2"
    },
    {
      "bufferView": 0,
      "byteOffset": 4152108,
      "componentType": 5125,
      "count": 251640,
      "type": "SCALAR"
    },
    {
      "bufferView": 2,
      "byteOffset": 7863840,
      "componentType": 5126,
      "count": 65532,
      "max": [
        38.18619155883789,
        14.466211318969727,
        32.604557037353516
      ],
      "min": [
        -13.846796035766602,
        -30.11490249633789,
        -0.5863790512084961
      ],
      "type": "VEC3"
    },
    {
      "bufferView": 2,
      "byteOffset": 8650224,
      "componentType": 5126,
      "count": 65532,
      "max": [
        0.9999995231628418,
        0.9999973773956299,
        1.0
      ],
      "min": [
        -0.999967098236084,
        -0.9999932050704956,
        -1.0
      ],
      "type": "VEC3"
    },
    {
      "bufferView": 1,
      "byteOffset": 2621280,
      "componentType": 5126,
      "count": 65532,
      "max": [
        0.9998000264167786,
        0.8277590274810791
      ],
      "min": [
        0.00012199999764561653,
        0.00028700000257231295
      ],
      "type": "VEC2"
    },
    {
      "bufferView": 0,
      "byteOffset": 5158668,
      "componentType": 5125,
      "count": 227370,
      "type": "SCALAR"
    },
    {
      "bufferView": 2,
      "byteOffset": 9436608,
      "componentType": 5126,
      "count": 65532,
      "max": [
        27.978670120239258,
        14.355209350585938,
        30.849525451660156
      ],
      "min": [
        -13.869535446166992,
        -13.431880950927734,
        0.11882686614990234
      ],
      "type": "VEC3"
    },
    {
      "bufferView": 2,
      "byteOffset": 10222992,
      "componentType": 5126,
      "count": 65532,
      "max": [
        0.9999980926513672,
        0.9999923706054688,
        1.0
      ],
      "min": [
        -0.9999987483024597,
        -0.9999951720237732,
        -0.999998152256012
      ],
      "type": "VEC3"
    },
    {
      "bufferView": 1,
      "byteOffset": 3145536,
      "componentType": 5126,
      "count": 65532,
      "max": [
        0.9997320175170898,
        0.8280029892921448
      ],
      "min": [
        0.00012199999764561653,
        0.021358000114560127
      ],
      "type": "VEC2"
    },
    {
      "bufferView": 0,
      "byteOffset": 6068148,
      "componentType": 5125,
      "count": 225651,
      "type": "SCALAR"
    },
    {
      "bufferView": 2,
      "byteOffset": 11009376,
      "componentType": 5126,
      "count": 65534,
      "max": [
        21.039499282836914,
        14.434501647949219,
        29.65966033935547
      ],
      "min": [
        -13.813559532165527,
        -21.077224731445313,
        0.05507946014404297
      ],
      "type": "VEC3"
    },
    {
      "bufferView": 2,
      "byteOffset": 11795784,
      "componentType": 5126,
      "count": 65534,
      "max": [
        0.9999998807907104,
        0.9999640583992004,
        1.0
      ],
      "min": [
        -0.9999971985816956,
        -0.9999889731407166,
        -0.9999960660934448
      ],
      "type": "VEC3"
    },
    {
      "bufferView": 1,
      "byteOffset": 3669792,
      "componentType": 5126,
      "count": 65534,
      "max": [
        0.9997739791870117,
        0.8280029892921448
      ],
      "min": [
        0.00012199999764561653,
        0.00037299998803064227
      ],
      "type": "VEC2"
    },
    {
      "bufferView": 0,
      "byteOffset": 6970752,
      "componentType": 5125,
      "count": 215193,
      "type": "SCALAR"
    },
    {
      "bufferView": 2,
      "byteOffset": 12582192,
      "componentType": 5126,
      "count": 65533,
      "max": [
        23.07825469970703,
        14.471814155578613,
        29.707439422607422
      ],
      "min": [
        -13.451056480407715,
        -24.882465362548828,
        0.05507946014404297
      ],
      "type": "VEC3"
    },
    {
      "bufferView": 2,
      "byteOffset": 13368588,
      "componentType": 5126,
      "count": 65533,
      "max": [
        0.9999983906745911,
        0.9999964833259583,
        1.0
      ],
      "min": [
        -0.9999976754188538,
        -0.9999846816062927,
        -0.999998152256012
      ],
      "type": "VEC3"
    },
    {
      "bufferView": 1,
      "byteOffset": 4194064,
      "componentType": 5126,
      "count": 65533,
      "max": [
        0.9997479915618896,
        0.8275150060653687
      ],
      "min": [
        0.00012199999764561653,
        0.0002739999908953905
      ],
      "type": "VEC2"
    },
    {
      "bufferView": 0,
      "byteOffset": 7831524,
      "componentType": 5125,
      "count": 198948,
      "type": "SCALAR"
    },
    {
      "bufferView": 2,
      "byteOffset": 14154984,
      "componentType": 5126,
      "count": 65532,
      "max": [
        18.291622161865234,
        14.112801551818848,
        31.66208267211914
      ],
      "min": [
        -13.899267196655273,
        -13.460954666137695,
        -0.5708913803100586
      ],
      "type": "VEC3"
    },
    {
      "bufferView": 2,
      "byteOffset": 14941368,
      "componentType": 5126,
      "count": 65532,
      "max": [
        0.9999992251396179,
        0.9999896287918091,
        1.0
      ],
      "min": [
        -0.9999958276748657,
        -0.9999992847442627,
        -1.0
      ],
      "type": "VEC3"
    },
    {
      "bufferView": 1,
      "byteOffset": 4718328,
      "componentType": 5126,
      "count": 65532,
      "max": [
        0.999763011932373,
        0.8280029892921448
      ],
      "min": [
        0.00012199999764561653,
        0.004466999787837267
      ],
      "type": "VEC2"
    },
    {
      "bufferView": 0,
      "byteOffset": 8627316,
      "componentType": 5125,
      "count": 197526,
      "type": "SCALAR"
    },
    {
      "bufferView": 2,
      "byteOffset": 15727752,
      "componentType": 5126,
      "count": 65532,
      "max": [
        36.465885162353516,
        13.29173755645752,
        31.77890396118164
      ],
      "min": [
        -12.571357727050781,
        -16.900184631347656,
        0.7779541015625
      ],
      "type": "VEC3"
    },
    {
      "bufferView": 2,
      "byteOffset": 16514136,
      "componentType": 5126,
      "count": 65532,
      "max": [
        0.9999995827674866,
        0.9999357461929321,
        0.9999995827674866
      ],
      "min": [
        -0.9999995827674866,
        -0.9999843239784241,
        -0.9999992847442627
      ],
      "type": "VEC3"
    },
    {
      "bufferView": 1,
      "byteOffset": 5242584,
      "componentType": 5126,
      "count": 65532,
      "max": [
        0.9997469782829285,
        0.8280029892921448
      ],
      "min": [
        0.00012199999764561653,
        0.01605900004506111
      ],
      "type": "VEC2"
    },
    {
      "bufferView": 0,
      "byteOffset": 9417420,
      "componentType": 5125,
      "count": 191205,
      "type": "SCALAR"
    },
    {
      "bufferView": 2,
      "byteOffset": 17300520,
      "componentType": 5126,
      "count": 65532,
      "max": [
        13.634496688842773,
        12.723761558532715,
        32.604557037353516
      ],
      "min": [
        -13.869956970214844,
        -16.499462127685547,
        11.853511810302734
      ],
      "type": "VEC3"
    },
    {
      "bufferView": 2,
      "byteOffset": 18086904,
      "componentType": 5126,
      "count": 65532,
      "max": [
        0.9999929666519165,
        0.9999442100524902,
        0.9997924566268921
      ],
      "min": [
        -0.9999969601631165,
        -0.9999923706054688,
        -1.0
      ],
      "type": "VEC3"
    },
    {
      "bufferView": 1,
      "byteOffset": 5766840,
      "componentType": 5126,
      "count": 65532,
      "max": [
        0.9998080134391785,
        0.8277590274810791
      ],
      "min": [
        0.00012199999764561653,
        0.014712000265717506
      ],
      "type": "VEC2"
    },
    {
      "bufferView": 0,
      "byteOffset": 10182240,
      "componentType": 5125,
      "count": 185037,
      "type": "SCALAR"
    },
    {
      "bufferView": 2,
      "byteOffset": 18873288,
      "componentType": 5126,
      "count": 65534,
      "max": [
        22.385297775268555,
        14.491791725158691,
        31.767505645751953
      ],
      "min": [
        -13.844043731689453,
        -16.960540771484375,
        0.12081050872802734
      ],
      "type": "VEC3"
    },
    {
      "bufferView": 2,
      "byteOffset": 19659696,
      "componentType": 5126,
      "count": 65534,
      "max": [
        0.9999991655349731,
        0.9999903440475464,
        1.0
      ],
      "min": [
        -0.9999951124191284,
        -0.9999867081642151,
        -0.9999930262565613
      ],
      "type": "VEC3"
    },
    {
      "bufferView": 1,
      "byteOffset": 6291096,
      "componentType": 5126,
      "count": 65534,
      "max": [
        0.9996939897537231,
        0.8280029892921448
      ],
      "min": [
        0.00012199999764561653,
        0.0009110000100918114
      ],
      "type": "VEC2"
    },
    {
      "bufferView": 0,
      "byteOffset": 10922388,
      "componentType": 5125,
      "count": 149748,
      "type": "SCALAR"
    },
    {
      "bufferView": 2,
      "byteOffset": 20446104,
      "componentType": 5126,
      "count": 60744,
      "max": [
        14.907299041748047,
        14.300562858581543,
        31.181121826171875
      ],
      "min": [
        -13.584471702575684,
        -17.101688385009766,
        0.09963607788085938
      ],
      "type": "VEC3"
    },
    {
      "bufferView": 2,
      "byteOffset": 21175032,
      "componentType": 5126,
      "count": 60744,
      "max": [
        0.9999987483024597,
        0.9999855160713196,
        1.0
      ],
      "min": [
        -0.999960720539093,
        -0.9999989867210388,
        -0.9999849200248718
      ],
      "type": "VEC3"
    },
    {
      "bufferView": 1,
      "byteOffset": 6815368,
      "componentType": 5126,
      "count": 60744,
      "max": [
        0.9997900128364563,
        0.8277590274810791
      ],
      "min": [
        0.00012199999764561653,
        0.020058000460267067
      ],
      "type": "VEC2"
    },
    {
      "bufferView": 0,
      "byteOffset": 11521380,
      "componentType": 5125,
      "count": 119655,
      "type": "SCALAR"
    }
  ],
  "asset": {
    "extras": {
      "author": "The Hallwyl Museum (Hallwylska museet) (https://sketchfab.com/TheHallwylMuseum)",
      "license": "CC-BY-4.0 (http://creativecommons.org/licenses/by/4.0/)",
      "source": "https://sketchfab.com/3d-models/the-upper-vestibule-e74928dc62fe457892e52dd97b6aa6e0",
      "title": "The Upper Vestibule"
    },
    "generator": "Sketchfab-16.12.0",
    "version": "2.0"
  },
  "bufferViews": [
    {
      "buffer": 0,
      "byteLength": 12000000,
      "name": "floatBufferViews",
      "target": 34963
    },
    {
      "buffer": 0,
      "byteLength": 7301320,
      "byteOffset": 12000000,
      "byteStride": 8,
      "name": "floatBufferViews",
      "target": 34962
    },
    {
      "buffer": 0,
      "byteLength": 21903960,
      "byteOffset": 19301320,
      "byteStride": 12,
      "name": "floatBufferViews",
      "target": 34962
    }
  ],
  "buffers": [
    {
      "byteLength": 41205280,
      "uri": "scene.bin"
    }
  ],
  "extensionsUsed": [
    "KHR_materials_unlit"
  ],
  "images": [
    {
      "uri": "textures/model_Material_u1_v1_baseColor.jpeg"
    }
  ],
  "materials": [
    {
      "extensions": {
        "KHR_materials_unlit": {}
      },
      "name": "model_Material_u1_v1",
      "pbrMetallicRoughness": {
        "baseColorTexture": {
          "index": 0
        },
        "metallicFactor": 0.0
      }
    }
  ],
  "meshes": [
    {
      "name": "Object_0",
      "primitives": [
        {
          "attributes": {
            "NORMAL": 1,
            "POSITION": 0,
            "TEXCOORD_0": 2
          },
          "indices": 3,
          "material": 0,
          "mode": 4
        }
      ]
    },
    {
      "name": "Object_1",
      "primitives": [
        {
          "attributes": {
            "NORMAL": 5,
            "POSITION": 4,
            "TEXCOORD_0": 6
          },
          "indices": 7,
          "material": 0,
          "mode": 4
        }
      ]
    },
    {
      "name": "Object_2",
      "primitives": [
        {
          "attributes": {
            "NORMAL": 9,
            "POSITION": 8,
            "TEXCOORD_0": 10
          },
          "indices": 11,
          "material": 0,
          "mode": 4
        }
      ]
    },
    {
      "name": "Object_3",
      "primitives": [
        {
          "attributes": {
            "NORMAL": 13,
            "POSITION": 12,
            "TEXCOORD_0": 14
          },
          "indices": 15,
          "material": 0,
          "mode": 4
        }
      ]
    },
    {
      "name": "Object_4",
      "primitives": [
        {
          "attributes": {
            "NORMAL": 17,
            "POSITION": 16,
            "TEXCOORD_0": 18
          },
          "indices": 19,
          "material": 0,
          "mode": 4
        }
      ]
    },
    {
      "name": "Object_5",
      "primitives": [
        {
          "attributes": {
            "NORMAL": 21,
            "POSITION": 20,
            "TEXCOORD_0": 22
          },
          "indices": 23,
          "material": 0,
          "mode": 4
        }
      ]
    },
    {
      "name": "Object_6",
      "primitives": [
        {
          "attributes": {
            "NORMAL": 25,
            "POSITION": 24,
            "TEXCOORD_0": 26
          },
          "indices": 27,
          "material": 0,
          "mode": 4
        }
      ]
    },
    {
      "name": "Object_7",
      "primitives": [
        {
          "attributes": {
            "NORMAL": 29,
            "POSITION": 28,
            "TEXCOORD_0": 30
          },
          "indices": 31,
          "material": 0,
          "mode": 4
        }
      ]
    },
    {
      "name": "Object_8",
      "primitives": [
        {
          "attributes": {
            "NORMAL": 33,
            "POSITION": 32,
            "TEXCOORD_0": 34
          },
          "indices": 35,
          "material": 0,
          "mode": 4
        }
      ]
    },
    {
      "name": "Object_9",
      "primitives": [
        {
          "attributes": {
            "NORMAL": 37,
            "POSITION": 36,
            "TEXCOORD_0": 38
          },
          "indices": 39,
          "material": 0,
          "mode": 4
        }
      ]
    },
    {
      "name": "Object_10",
      "primitives": [
        {
          "attributes": {
            "NORMAL": 41,
            "POSITION": 40,
            "TEXCOORD_0": 42
          },
          "indices": 43,
          "material": 0,
          "mode": 4
        }
      ]
    },
    {
      "name": "Object_11",
      "primitives": [
        {
          "attributes": {
            "NORMAL": 45,
            "POSITION": 44,
            "TEXCOORD_0": 46
          },
          "indices": 47,
          "material": 0,
          "mode": 4
        }
      ]
    },
    {
      "name": "Object_12",
      "primitives": [
        {
          "attributes": {
            "NORMAL": 49,
            "POSITION": 48,
            "TEXCOORD_0": 50
          },
          "indices": 51,
          "material": 0,
          "mode": 4
        }
      ]
    },
    {
      "name": "Object_13",
      "primitives": [
        {
          "attributes": {
            "NORMAL": 53,
            "POSITION": 52,
            "TEXCOORD_0": 54
          },
          "indices": 55,
          "material": 0,
          "mode": 4
        }
      ]
    }
  ],
  "nodes": [
    {
      "children": [
        1
      ],
      "matrix": [
        0.2647892236709595,
        0.0,
        0.0,
        0.0,
        0.0,
        5.879501855842394e-17,
        -0.2647892236709595,
        0.0,
        0.0,
        0.2647892236709595,
        5.879501855842394e-17,
        0.0,
        0.0,
        0.0,
        0.0,
        1.0
      ],
      "name": "Sketchfab_model"
    },
    {
      "children": [
        2,
        3,
        4,
        5,
        6,
        7,
        8,
        9,
        10,
        11,
        12,
        13,
        14,
        15
      ],
      "name": "model.obj.cleaner.materialmerger.gles"
    },
    {
      "mesh": 0,
      "name": "Object_2"
    },
    {
      "mesh": 1,
      "name": "Object_3"
    },
    {
      "mesh": 2,
      "name": "Object_4"
    },
    {
      "mesh": 3,
      "name": "Object_5"
    },
    {
      "mesh": 4,
      "name": "Object_6"
    },
    {
      "mesh": 5,
      "name": "Object_7"
    },
    {
      "mesh": 6,
      "name": "Object_8"
    },
    {
      "mesh": 7,
      "name": "Object_9"
    },
    {
      "mesh": 8,
      "name": "Object_10"
    },
    {
      "mesh": 9,
      "name": "Object_11"
    },
    {
      "mesh": 10,
      "name": "Object_12"
    },
    {
      "mesh": 11,
      "name": "Object_13"
    },
    {
      "mesh": 12,
      "name": "Object_14"
    },
    {
      "mesh": 13,
      "name": "Object_15"
    }
  ],
  "samplers": [
    {
      "magFilter": 9729,
      "minFilter": 9987,
      "wrapS": 10497,
      "wrapT": 10497
    }
  ],
  "scene": 0,
  "scenes": [
    {
      "name": "Sketchfab_Scene",
      "nodes": [
        0
      ]
    }
  ],
  "textures": [
    {
      "sampler": 0,
      "source": 0
    }
  ]
}
